<?xml version="1.0" encoding="utf-8"?>
<!-- Generator: Adobe Illustrator 25.4.1, SVG Export Plug-In . SVG Version: 6.00 Build 0)  -->
<svg version="1.1" id="Layer_1" xmlns="http://www.w3.org/2000/svg" xmlns:xlink="http://www.w3.org/1999/xlink" x="0px" y="0px"
	 viewBox="0 0 350 350" style="enable-background:new 0 0 350 350;" xml:space="preserve">
<style type="text/css">
	.st0{fill:url(#SVGID_1_);}
	.st1{fill:#FFFFFF;}
</style>
<g>
	<linearGradient id="SVGID_1_" gradientUnits="userSpaceOnUse" x1="51.2565" y1="51.2563" x2="298.7437" y2="298.7435">
		<stop  offset="0" style="stop-color:#007CB9"/>
		<stop  offset="0.8213" style="stop-color:#065CA6"/>
		<stop  offset="1" style="stop-color:#2453A1"/>
	</linearGradient>
	<circle class="st0" cx="175" cy="175" r="175"/>
	<path class="st1" d="M91.66,138.17h38.31v123.05H91.66V138.17z M110.82,77.02c12.25,0,22.18,9.94,22.18,22.16
		c0,12.24-9.93,22.19-22.18,22.19c-12.28,0-22.21-9.95-22.21-22.19C88.61,86.96,98.54,77.02,110.82,77.02"/>
	<path class="st1" d="M153.97,138.17h36.69V155h0.5c5.12-9.68,17.59-19.88,36.22-19.88c38.72,0,45.87,25.47,45.87,58.61v67.49
		h-38.22v-59.82c0-14.28-0.28-32.63-19.88-32.63c-19.91,0-22.95,15.54-22.95,31.59v60.87h-38.23V138.17z"/>
</g>
</svg>
