<?xml version="1.0" encoding="utf-8"?>
<!-- Generator: Adobe Illustrator 25.4.1, SVG Export Plug-In . SVG Version: 6.00 Build 0)  -->
<svg version="1.1" id="Layer_1" xmlns="http://www.w3.org/2000/svg" xmlns:xlink="http://www.w3.org/1999/xlink" x="0px" y="0px"
	 viewBox="0 0 350 350" style="enable-background:new 0 0 350 350;" xml:space="preserve">
<style type="text/css">
	.st0{fill:#E0E2E2;}
	.st1{fill:#9B9B9A;}
	.st2{fill:#CAC8C4;}
	.st3{fill:#686463;}
	.st4{fill:#59C5F2;}
	.st5{fill:#1F637B;}
	.st6{fill:#65B76A;}
	.st7{fill:#147934;}
	.st8{fill:#F39131;}
	.st9{fill:#894513;}
</style>
<ellipse transform="matrix(0.7071 -0.7071 0.7071 0.7071 -72.4873 174.9999)" class="st0" cx="175" cy="175" rx="175" ry="175"/>
<g>
	<path class="st1" d="M116.95,288.46c-12.07-0.36-17.46-1.07-24.37-3.2c-9.85-3.04-18.96-9.74-24.97-18.35
		c-1.84-2.64-4.61-7.79-4.61-8.57c0-1.02,16.17-8.12,26.72-11.72c3.81-1.3,10.86-3.43,12.85-3.87c1.45-0.32,8.14-2.26,11.77-3.41
		c5.38-1.7,8.29-3.37,9.32-5.35c0.46-0.89,1.57-6.27,2.13-10.37c0.16-1.16,0.44-3.13,0.62-4.38c0.58-3.9,0.48-4.72-0.72-6
		c-4.24-4.51-6.08-8.85-7.1-16.7c-0.51-3.91-1.9-10.8-2.39-11.82c-0.22-0.45-1.15-1.23-2.08-1.72c-2.47-1.32-3.52-3.12-4.16-7.21
		c-0.47-3-0.98-4.77-2.74-9.61c-1.21-3.32-1.78-6.61-1.66-9.5c0.1-2.37,0.22-2.84,0.93-3.59c0.72-0.76,0.99-0.84,2.24-0.68
		c1.16,0.16,1.39,0.1,1.24-0.28c-1.02-2.65-2.47-14.93-3.38-28.75c-0.31-4.71,0.78-9.94,3.1-14.82c1.89-3.98,4.1-6.34,6.87-7.34
		c0.84-0.3,1.68-0.61,2.52-0.92c0.54-0.2,1.9-1.27,3.02-2.38c4.3-4.25,7.96-6.47,13.87-8.39c2.04-0.67,5.2-1.77,7.03-2.46
		c4.53-1.71,7.47-2.29,11.72-2.34c5.65-0.06,9.17,0.75,17.49,4.01c2.61,1.02,6.29,2.31,8.17,2.87c7.11,2.1,11.27,4.84,13.4,8.85
		c0.6,1.12,1.66,2.9,2.36,3.95c2.35,3.53,2.84,4.86,3.69,9.92c1.49,8.89,0.74,20.91-2.03,32.91c-1.13,4.91-1.2,5.35-0.8,5.35
		c0.19,0,0.44-0.15,0.55-0.32c0.34-0.55,1.64-0.36,2.41,0.36c1.12,1.03,1.43,2.14,1.44,5.16c0.01,3.28-0.69,6.67-2.37,11.51
		c-0.68,1.96-1.4,4.78-1.6,6.27c-0.49,3.65-1.86,6.24-3.76,7.13c-0.74,0.35-1.61,0.91-1.91,1.25c-1.13,1.24-1.92,4.63-3.71,15.99
		c-0.88,5.61-2.47,9.09-5.75,12.65l-1.64,1.78l0.16,4.21c0.23,5.9,1.36,13.19,2.38,15.29c1.76,3.63,5.57,5.36,19.86,9.02
		c16.88,4.32,24.65,7.03,39.68,13.81c0.75,0.34,2.3,0.62,2.49,0.62l0.04,29.66c-0.78,0.48-7.46,1.19-17.14,1.47
		C216.06,288.81,128.67,288.81,116.95,288.46L116.95,288.46z"/>
	<path class="st2" d="M244.01,61.27c7.16,1.27,13.97,4.03,19.99,8.09c6.97,4.7,12.71,11.02,16.72,18.41
		c2.45,4.51,4.21,9.36,5.23,14.4c0.35,1.7,0.61,3.44,0.79,5.2c0.18,1.76,0.27,3.55,0.27,5.36v3.51h-43L244.01,61.27L244.01,61.27z"
		/>
	<path class="st3" d="M259.85,100.95l4.55-11.84h1.68l4.85,11.84h-1.79l-1.37-3.59h-4.95l-1.3,3.59H259.85z M263.27,96.08h4.02
		l-1.24-3.28c-0.41-1.1-0.69-1.91-0.84-2.45c-0.15,0.77-0.37,1.52-0.64,2.25L263.27,96.08L263.27,96.08z"/>
	<path class="st4" d="M287,116.15v57.44h-43v-57.44H287z"/>
	<path class="st5" d="M261.02,151.89v-11.84h4.44c1.37,0,2.37,0.3,2.99,0.9c0.62,0.6,0.93,1.31,0.93,2.14
		c0,1.13-0.55,1.97-1.66,2.51c1.49,0.44,2.24,1.39,2.24,2.87c0,2.29-1.48,3.43-4.43,3.43L261.02,151.89L261.02,151.89z
		 M262.59,145.03h2.56c0.58,0,1.05-0.04,1.42-0.12c0.36-0.07,0.68-0.26,0.92-0.53c0.24-0.28,0.37-0.65,0.37-1.11
		c0-0.48-0.11-0.86-0.33-1.14c-0.22-0.28-0.52-0.47-0.91-0.55c-0.39-0.08-0.94-0.12-1.66-0.12h-2.36L262.59,145.03L262.59,145.03z
		 M262.59,150.5h2.95c0.39,0,0.73-0.02,1.03-0.06c0.31-0.04,0.61-0.14,0.88-0.29c0.28-0.15,0.51-0.38,0.66-0.66
		c0.15-0.28,0.23-0.63,0.23-1.02c0-0.64-0.21-1.14-0.62-1.5c-0.41-0.36-1.21-0.54-2.39-0.54h-2.74L262.59,150.5L262.59,150.5z"/>
	<g>
		<path class="st6" d="M287,173.35v58.01l-43,0v-58.01H287z"/>
		<path class="st7" d="M269.08,204.81l1.57,0.4c-0.68,2.64-2.31,3.96-4.91,3.96c-1.91,0-3.31-0.6-4.21-1.79
			c-0.9-1.19-1.35-2.67-1.35-4.42c0-2,0.54-3.5,1.61-4.51c1.07-1.01,2.4-1.52,3.97-1.52c2.45,0,4.01,1.15,4.68,3.44l-1.53,0.37
			c-0.53-1.65-1.58-2.48-3.17-2.48c-1.28,0-2.26,0.41-2.93,1.24c-0.68,0.83-1.01,1.98-1.01,3.45c0,1.71,0.37,2.95,1.09,3.72
			c0.73,0.77,1.64,1.16,2.73,1.16C267.49,207.83,268.64,206.82,269.08,204.81L269.08,204.81z"/>
	</g>
	<g>
		<path class="st8" d="M287,231.36v4.62c0,1.81-0.09,3.6-0.27,5.36c-0.18,1.75-0.44,3.48-0.79,5.2c-0.68,3.37-1.7,6.66-3.04,9.82
			c-1.31,3.11-2.92,6.08-4.81,8.88c-1.87,2.78-4.01,5.36-6.37,7.73c-2.37,2.37-4.96,4.5-7.73,6.37c-4.22,2.85-8.83,5.06-13.69,6.56
			c-2.07,0.64-4.17,1.15-6.3,1.53v-56.08L287,231.36L287,231.36z"/>
		<path class="st9" d="M261.07,260.68v-11.84h4.08c0.78,0,1.47,0.05,2.07,0.16c0.61,0.11,1.19,0.38,1.75,0.82s1.01,1.07,1.36,1.89
			c0.35,0.82,0.53,1.81,0.53,2.98c0,1.78-0.42,3.23-1.27,4.33c-0.85,1.11-2.26,1.66-4.25,1.66H261.07z M262.64,259.28h2.52
			c1.04,0,1.84-0.15,2.39-0.46c0.55-0.31,0.97-0.81,1.26-1.53c0.29-0.71,0.43-1.59,0.43-2.63c0-0.73-0.07-1.36-0.22-1.91
			c-0.14-0.54-0.36-1-0.65-1.37c-0.29-0.37-0.66-0.66-1.1-0.85c-0.45-0.2-1.16-0.3-2.15-0.3h-2.49L262.64,259.28L262.64,259.28z"/>
	</g>
</g>
</svg>
