<?xml version="1.0" encoding="utf-8"?>
<!-- Generator: Adobe Illustrator 25.4.1, SVG Export Plug-In . SVG Version: 6.00 Build 0)  -->
<svg version="1.1" id="Layer_1" xmlns="http://www.w3.org/2000/svg" xmlns:xlink="http://www.w3.org/1999/xlink" x="0px" y="0px"
	 viewBox="0 0 350 350" style="enable-background:new 0 0 350 350;" xml:space="preserve">
<style type="text/css">
	.st0{fill:#FEEB00;}
</style>
<circle class="st0" cx="175" cy="175" r="175"/>
<path d="M132.79,211.56c0.39,25.03,21.4,35.13,44.02,35.13c16.57,0,37.56-6.47,37.56-26.66c0-17.37-23.84-23.44-65.04-32.32
	c-33.1-7.29-66.23-18.98-66.23-55.74c0-53.3,46.08-67.05,90.91-67.05c45.62,0,87.62,15.34,92.07,66.65h-54.53
	c-1.61-22.23-18.57-28.29-39.18-28.29c-12.92,0-31.9,2.43-31.9,19.4c0,20.59,32.32,23.42,65.02,31.11
	c33.52,7.67,66.26,19.78,66.26,58.56c0,54.92-47.68,72.69-95.35,72.69c-48.45,0-95.7-18.16-98.14-73.49H132.79z"/>
</svg>
