<?xml version="1.0" encoding="utf-8"?>
<!-- Generator: Adobe Illustrator 25.4.1, SVG Export Plug-In . SVG Version: 6.00 Build 0)  -->
<svg version="1.1" id="Layer_1" xmlns="http://www.w3.org/2000/svg" xmlns:xlink="http://www.w3.org/1999/xlink" x="0px" y="0px"
	 viewBox="0 0 350 350" style="enable-background:new 0 0 350 350;" xml:space="preserve">
<style type="text/css">
	.st0{fill:url(#SVGID_1_);}
	.st1{fill-rule:evenodd;clip-rule:evenodd;fill:#FFFFFF;}
	.st2{fill:#FFFFFF;}
</style>
<g>
	<linearGradient id="SVGID_1_" gradientUnits="userSpaceOnUse" x1="51.2564" y1="51.2563" x2="298.7436" y2="298.7435">
		<stop  offset="0" style="stop-color:#84BF66"/>
		<stop  offset="1" style="stop-color:#00A35C"/>
	</linearGradient>
	<circle class="st0" cx="175" cy="175" r="175"/>
	<path class="st1" d="M223.34,186.31c-4.68-2.8-10.76-5.92-16.27-3.67c-4.23,1.73-6.92,8.34-9.66,11.72c-1.41,1.73-3.08,2-5.24,1.14
		c-15.86-6.32-28.02-16.91-36.77-31.5c-1.48-2.27-1.22-4.06,0.57-6.16c2.65-3.11,5.97-6.65,6.68-10.85c0.71-4.2-1.25-9.1-2.99-12.84
		c-2.22-4.77-4.69-11.58-9.48-14.28c-4.4-2.48-10.19-1.09-14.11,2.1c-6.76,5.51-10.02,14.13-9.92,22.68
		c0.03,2.43,0.33,4.85,0.89,7.2c1.36,5.64,3.97,10.91,6.9,15.91c2.21,3.77,4.62,7.44,7.21,10.96c8.49,11.53,19.04,21.54,31.26,29.03
		c6.11,3.74,12.69,7.02,19.5,9.27c7.64,2.52,14.45,5.15,22.7,3.58c8.64-1.64,17.15-6.99,20.58-15.31c1.01-2.46,1.52-5.21,0.96-7.81
		C234.97,192.11,227.69,188.91,223.34,186.31z"/>
	<g>
		<g>
			<path class="st2" d="M65.23,286.92l16.49-61.53c-9.34-16.84-14.25-35.72-14.25-54.88c0-62.64,50.96-113.6,113.6-113.6
				c62.64,0,113.6,50.96,113.6,113.6c0,62.64-50.96,113.6-113.6,113.6c-18.81,0-37.38-4.75-54-13.76L65.23,286.92z M130.15,247.29
				l3.89,2.32c14.3,8.52,30.56,13.02,47.03,13.02c50.8,0,92.13-41.33,92.13-92.13c0-50.8-41.33-92.13-92.13-92.13
				s-92.13,41.33-92.13,92.13c0,16.77,4.66,33.29,13.47,47.77l2.39,3.92l-9.2,34.35L130.15,247.29z"/>
		</g>
	</g>
</g>
</svg>
